# Blender v3.4.1 OBJ File: ''
# www.blender.org
mtllib aaauntitled.mtl
o tavern01
v 2.002381 2.105484 0.718584
v 2.002381 5.585129 0.718585
v 1.766980 5.371634 0.482508
v 1.997428 7.248810 0.612837
v 1.734214 7.391862 0.414449
v 1.734214 7.391860 -0.326728
v 1.997428 7.248810 -0.544467
v 2.946916 8.293177 0.407885
v 2.735299 8.462915 0.602802
v 2.699551 7.241619 0.557642
v 2.894933 7.373356 0.378338
v 1.943946 8.474198 0.602802
v 1.713997 8.306050 0.407884
v 1.734214 7.391862 0.414449
v 1.997428 7.248810 0.612837
v 1.767357 5.369795 -0.402342
v 2.002381 5.585129 -0.662113
v 2.002381 2.105484 -0.662115
v 1.770519 2.280516 -0.402343
v 2.576542 5.585129 -0.662112
v 2.840016 5.380952 -0.402342
v 2.840016 2.272892 -0.402343
v 2.576542 2.105484 -0.662115
v 2.002381 5.585129 -0.662113
v 2.002381 2.105484 -0.662115
v -1.818906 7.350371 0.354070
v -1.829587 7.357723 -0.267690
v 1.734214 7.391860 -0.326728
v 1.734214 7.391862 0.414449
v -1.816192 8.321033 0.354070
v -1.818906 7.350371 0.354070
v 1.734214 7.391862 0.414449
v 1.713997 8.306050 0.407884
v -1.816192 8.321033 0.354070
v 1.713997 8.306050 0.407884
v 1.713998 8.306050 -0.320330
v -1.816191 8.318204 -0.267690
v -1.829587 7.357723 -0.267690
v 1.734214 7.391860 -0.326728
v 2.894933 7.373356 0.378338
v 2.883232 7.380377 -0.291546
v 4.857341 7.341010 -0.291545
v 4.877787 7.328556 0.431854
v 4.887145 8.373916 0.432946
v 2.946916 8.293177 0.407885
v 2.894933 7.373356 0.378338
v 4.877787 7.328556 0.431854
v 4.857341 7.341010 -0.291545
v 2.883232 7.380377 -0.291546
v 2.946917 8.290240 -0.320329
v 4.865711 8.289151 -0.291546
v 2.946916 8.293177 0.407885
v 4.887145 8.373916 0.432946
v 2.735299 8.462915 0.602802
v 2.946916 8.293177 0.407885
v 2.946917 8.290240 -0.320329
v 2.735299 8.462914 -0.534262
v 2.894933 7.373356 0.378338
v 2.699551 7.241619 0.557642
v 2.699551 7.241619 -0.488343
v 2.883232 7.380377 -0.291546
v 2.699551 7.241619 0.557642
v 1.997428 7.248810 0.612837
v 1.997428 7.248810 -0.544467
v 2.699551 7.241619 -0.488343
v -1.790428 2.271249 0.481904
v -1.804999 2.280516 -0.402343
v -0.122640 2.280516 -0.402343
v -0.119274 2.273566 0.481904
v 1.763233 2.275882 0.481904
v 1.770519 2.280516 -0.402343
v -1.791314 5.379019 0.481904
v -1.790428 2.271249 0.481904
v -0.119274 2.273566 0.481904
v -0.114686 5.371634 0.482508
v 1.766980 5.371634 0.482508
v 1.763233 2.275882 0.481904
v -2.751238 7.349889 0.362613
v -2.747780 8.347660 0.362613
v -2.747780 8.347659 -0.276361
v -2.751238 7.349889 -0.276361
v -1.864169 8.455358 0.498219
v -1.816192 8.321033 0.354070
v -1.816191 8.318204 -0.267690
v -1.864169 8.455358 -0.427826
v 5.091867 7.129111 0.630573
v 4.877787 7.328556 0.431854
v 4.857341 7.341010 -0.291545
v 5.091867 7.129111 -0.592343
v -1.818906 7.350371 0.354070
v -1.867380 7.241978 0.498219
v -1.867380 7.241978 -0.427826
v -1.829587 7.357723 -0.267690
v -1.867380 7.241978 0.498219
v -2.552794 7.210771 0.533645
v -2.552794 7.210771 -0.464076
v -1.867380 7.241978 -0.427826
v -2.552794 7.210771 0.533645
v -2.751238 7.349889 0.362613
v -2.751238 7.349889 -0.276361
v -2.552794 7.210771 -0.464076
v 5.095703 8.571808 0.630573
v 4.887145 8.373916 0.432946
v 4.877787 7.328556 0.431854
v 5.091867 7.129111 0.630573
v -1.816192 8.321033 0.354070
v -1.864169 8.455358 0.498219
v -1.867380 7.241978 0.498219
v -1.818906 7.350371 0.354070
v -2.549333 8.514095 0.533645
v -2.747780 8.347660 0.362613
v -2.751238 7.349889 0.362613
v -2.552794 7.210771 0.533645
v 5.095700 8.571808 -0.592343
v 4.865711 8.289151 -0.291546
v 4.887145 8.373916 0.432946
v 5.095703 8.571808 0.630573
v 6.038475 8.584188 0.630573
v 6.038475 8.584188 -0.592343
v 6.034639 7.141491 -0.592343
v 5.091867 7.129111 -0.592343
v 5.095700 8.571808 -0.592343
v 5.091867 7.129111 -0.592343
v 4.857341 7.341010 -0.291545
v 4.865711 8.289151 -0.291546
v -2.871421 2.272892 0.481904
v -2.871421 5.380952 0.481905
v -2.871421 5.380952 -0.402341
v -2.871421 2.272892 -0.402342
v -2.033787 5.585129 0.718586
v -1.791314 5.379019 0.481904
v -1.791314 5.375454 -0.402341
v -2.033787 5.585129 -0.662113
v -1.790428 2.271249 0.481904
v -2.033787 2.105484 0.718585
v -2.033787 2.105484 -0.662114
v -1.804999 2.280516 -0.402343
v -2.033787 2.105484 0.718585
v -2.607947 2.105483 0.718585
v -2.607947 2.105484 -0.662114
v -2.033787 2.105484 -0.662114
v -2.607947 2.105483 0.718585
v -2.871421 2.272892 0.481904
v -2.871421 2.272892 -0.402342
v -2.607947 2.105484 -0.662114
v -1.791314 5.379019 0.481904
v -2.033787 5.585129 0.718586
v -2.033787 2.105484 0.718585
v -1.790428 2.271249 0.481904
v -2.607947 5.585129 0.718586
v -2.033787 5.585129 0.718586
v -2.033787 5.585129 -0.662113
v -2.607947 5.585129 -0.662112
v -2.871421 5.380952 -0.402341
v -2.871421 5.380952 0.481905
v -2.871421 2.272892 0.481904
v -2.607947 2.105483 0.718585
v -2.033787 5.585129 0.718586
v -2.033787 2.105484 0.718585
v -1.791314 5.375454 -0.402341
v -1.804999 2.280516 -0.402343
v -2.033787 2.105484 -0.662114
v -2.033787 5.585129 -0.662113
v -2.033787 5.585129 -0.662113
v -2.033787 2.105484 -0.662114
v -2.607947 2.105484 -0.662114
v -2.607947 5.585129 -0.662112
v -2.871421 2.272892 -0.402342
v -2.871421 5.380952 -0.402341
v 2.840016 2.272892 0.481904
v 2.840016 2.272892 -0.402343
v 2.840016 5.380952 -0.402342
v 2.840016 5.380952 0.481905
v 2.002381 5.585129 0.718585
v 2.002381 5.585129 -0.662113
v 1.767357 5.369795 -0.402342
v 1.766980 5.371634 0.482508
v 1.763233 2.275882 0.481904
v 1.770519 2.280516 -0.402343
v 2.002381 2.105484 -0.662115
v 2.002381 2.105484 0.718584
v 2.002381 2.105484 0.718584
v 2.002381 2.105484 -0.662115
v 2.576542 2.105484 -0.662115
v 2.576542 2.105484 0.718584
v 2.576542 2.105484 0.718584
v 2.576542 2.105484 -0.662115
v 2.840016 2.272892 -0.402343
v 2.840016 2.272892 0.481904
v -0.114337 5.369795 -0.402341
v -1.791314 5.375454 -0.402341
v -1.791314 5.379019 0.481904
v 1.766980 5.371634 0.482508
v 1.767357 5.369795 -0.402342
v -0.114686 5.371634 0.482508
v -1.804999 2.280516 -0.402343
v -1.791314 5.375454 -0.402341
v -0.114337 5.369795 -0.402341
v -0.122640 2.280516 -0.402343
v 1.770519 2.280516 -0.402343
v 1.767357 5.369795 -0.402342
v 5.091867 7.129111 -0.592343
v 6.034639 7.141491 -0.592343
v 6.034639 7.141491 0.630571
v 5.091867 7.129111 0.630573
v 6.038475 8.584188 0.630573
v 5.095703 8.571808 0.630573
v -1.864169 8.455358 -0.427826
v -2.549333 8.514096 -0.464076
v -2.549333 8.514095 0.533645
v -1.864169 8.455358 0.498219
v -2.552794 7.210771 0.533645
v -1.867380 7.241978 0.498219
v -2.747780 8.347660 0.362613
v -2.747780 8.347659 -0.276361
v -2.751238 7.349889 -0.276361
v -2.552794 7.210771 -0.464076
v -1.867380 7.241978 -0.427826
v -1.816191 8.318204 -0.267690
v -1.829587 7.357723 -0.267690
v 2.840016 5.380952 0.481905
v 2.840016 5.380952 -0.402342
v 2.576542 5.585129 -0.662112
v 2.576542 5.585129 0.718585
v 2.002381 5.585129 -0.662113
v 2.002381 5.585129 0.718585
v 2.840016 2.272892 0.481904
v 2.576542 2.105484 0.718584
v 2.002381 5.585129 0.718585
v 2.002381 2.105484 0.718584
v 2.946917 8.290240 -0.320329
v 2.883232 7.380377 -0.291546
v 2.699551 7.241619 -0.488343
v 2.735299 8.462914 -0.534262
v 1.997428 7.248810 -0.544467
v 1.997428 7.248810 0.612837
v 2.699551 7.241619 0.557642
v 2.735299 8.462915 0.602802
v 1.943946 8.474198 0.602802
v 1.943946 8.474199 -0.534262
v 1.734214 7.391860 -0.326728
v 1.713997 8.306050 0.407884
v 1.713998 8.306050 -0.320330
v 1.763233 2.275882 0.481904
v 2.067641 6.345320 0.042215
v 2.067641 7.391266 0.042215
v 2.593817 7.391266 0.040528
v -2.272819 7.391266 -0.221716
v -2.271132 7.391266 0.304459
v -2.271132 6.345320 0.304459
v -2.272819 6.345320 -0.221716
v -2.272819 5.299373 -0.221717
v -2.271132 5.299372 0.304459
v 2.329885 7.391266 -0.221717
v 2.331572 7.391266 0.304459
v 2.331572 6.345320 0.304459
v 2.329885 6.345320 -0.221716
v 2.329885 5.299373 -0.221717
v 2.331572 5.299373 0.304459
v -2.008888 5.299373 0.040528
v -2.535063 5.299372 0.042215
v -2.535063 6.345320 0.042215
v -2.008888 7.391266 0.040528
v -2.535063 7.391266 0.042215
v -2.008888 6.345320 0.040528
v 2.593817 5.299373 0.040528
v 2.067641 5.299373 0.042214
v 2.593816 6.345320 0.040528
vt 0.348692 0.995377
vt 0.348692 0.459118
vt 0.385568 0.459118
vt 0.839601 0.240364
vt 0.868393 0.240364
vt 0.868393 0.000371
vt 0.839601 0.000371
vt 0.995270 0.448954
vt 0.958799 0.448954
vt 0.958799 0.240364
vt 0.995270 0.240364
vt 0.868393 0.448954
vt 0.839601 0.448954
vt 0.839601 0.240364
vt 0.868393 0.240364
vt 0.385568 0.459118
vt 0.348692 0.459118
vt 0.348692 0.995377
vt 0.385568 0.995377
vt 0.210030 0.995377
vt 0.160879 0.995377
vt 0.160913 0.465091
vt 0.210030 0.465091
vt 0.347656 0.995377
vt 0.347656 0.465091
vt -0.170842 0.215927
vt -0.170842 0.001869
vt -0.992239 0.001869
vt -0.992239 0.215927
vt -0.994155 0.452617
vt -0.994155 0.236636
vt -0.167320 0.236636
vt -0.167320 0.452617
vt -0.994155 0.251710
vt -0.167320 0.251710
vt -0.167320 0.452617
vt -0.994155 0.452617
vt -0.994155 0.236636
vt -0.167320 0.236636
vt -0.171300 0.215927
vt -0.171300 0.001869
vt -0.994155 0.001869
vt -0.994155 0.215927
vt -0.166860 0.452617
vt -0.992230 0.452617
vt -0.992230 0.236636
vt -0.166860 0.236636
vt -0.166860 0.236636
vt -0.992230 0.236636
vt -0.992230 0.452617
vt -0.166860 0.452617
vt -0.992230 0.251710
vt -0.166860 0.251710
vt 0.868394 0.240364
vt 0.839601 0.240364
vt 0.839601 0.448954
vt 0.868394 0.448954
vt 0.868393 0.240364
vt 0.839601 0.240364
vt 0.839601 0.000371
vt 0.868393 0.000371
vt 0.868393 0.240364
vt 0.958816 0.240364
vt 0.958816 0.000371
vt 0.868393 0.000371
vt 1.827934 0.011719
vt 1.827934 0.242188
vt 1.424209 0.242188
vt 1.424209 0.011719
vt 1.020484 0.011719
vt 1.020484 0.242188
vt 0.386271 0.995377
vt 0.386271 0.466594
vt 0.692680 0.466594
vt 0.692680 0.995735
vt 0.999090 0.996094
vt 0.999090 0.466594
vt 0.958816 0.240364
vt 0.958816 0.448954
vt 0.868393 0.448954
vt 0.868393 0.240364
vt 0.868394 0.240364
vt 0.839601 0.240364
vt 0.839601 0.448954
vt 0.868394 0.448954
vt 0.868393 0.240364
vt 0.834955 0.240364
vt 0.834955 0.000371
vt 0.868393 0.000371
vt 0.868393 0.240364
vt 0.839601 0.240364
vt 0.839601 0.000371
vt 0.868393 0.000371
vt 0.868393 0.240364
vt 0.958816 0.240364
vt 0.958816 0.000371
vt 0.868393 0.000371
vt 0.839601 0.240364
vt 0.868393 0.240364
vt 0.868393 0.000371
vt 0.839601 0.000371
vt 0.958799 0.448954
vt 0.995270 0.448954
vt 0.995270 0.240364
vt 0.958799 0.240364
vt 0.995270 0.448954
vt 0.958799 0.448954
vt 0.958799 0.240364
vt 0.995270 0.240364
vt 0.868393 0.448954
vt 0.839601 0.448954
vt 0.839601 0.240364
vt 0.868393 0.240364
vt 0.868393 0.448954
vt 0.839601 0.448954
vt 0.839601 0.240364
vt 0.868393 0.240364
vt 0.958816 0.240364
vt 0.958816 0.448954
vt 0.958816 0.240364
vt 0.868393 0.240364
vt 0.958799 0.448954
vt 0.958799 0.240364
vt 0.995270 0.240364
vt 0.995270 0.448954
vt 0.347570 0.995377
vt 0.347570 0.465091
vt 0.210030 0.465091
vt 0.210030 0.995377
vt 0.212209 0.476060
vt 0.168193 0.476060
vt 0.168193 0.990917
vt 0.212209 0.990917
vt 0.875507 0.005774
vt 0.955866 0.005774
vt 0.955866 0.235680
vt 0.875507 0.235680
vt 0.875507 0.005774
vt 0.955866 0.005774
vt 0.955866 0.235680
vt 0.875507 0.235680
vt 0.871085 0.013514
vt 0.871085 0.238559
vt 0.958960 0.238559
vt 0.958960 0.013514
vt 0.385568 0.459118
vt 0.348692 0.459118
vt 0.348692 0.995377
vt 0.385568 0.995377
vt 0.210030 0.995377
vt 0.162152 0.995377
vt 0.163262 0.465091
vt 0.210030 0.465091
vt 0.160913 0.465091
vt 0.160879 0.995377
vt 0.160913 0.465091
vt 0.210030 0.465091
vt 0.347656 0.995377
vt 0.347656 0.465091
vt 0.385568 0.459118
vt 0.385568 0.995377
vt 0.348692 0.995377
vt 0.348692 0.459118
vt 0.347656 0.995377
vt 0.347656 0.465091
vt 0.210030 0.465091
vt 0.210030 0.995377
vt 0.160913 0.465091
vt 0.160879 0.995377
vt 0.347570 0.995377
vt 0.210030 0.995377
vt 0.210030 0.465091
vt 0.347570 0.465091
vt 0.212209 0.464844
vt 0.212209 0.996094
vt 0.166864 0.996094
vt 0.166864 0.464844
vt 0.875507 0.005774
vt 0.875507 0.235680
vt 0.955866 0.235680
vt 0.955866 0.005774
vt 0.875507 0.005774
vt 0.875507 0.235680
vt 0.955866 0.235680
vt 0.955866 0.005774
vt 0.871085 0.013514
vt 0.958960 0.013514
vt 0.958960 0.238559
vt 0.871085 0.238559
vt 1.424209 0.250000
vt 1.020484 0.250000
vt 1.020484 0.457031
vt 1.831445 0.457031
vt 1.827934 0.250000
vt 1.425964 0.457031
vt 0.386271 0.466594
vt 0.386271 0.995377
vt 0.692680 0.995735
vt 0.692680 0.466594
vt 0.999090 0.466594
vt 0.999090 0.996094
vt 0.868393 0.000371
vt 0.958816 0.000371
vt 0.958816 0.240364
vt 0.868393 0.240364
vt 0.958816 0.448954
vt 0.868393 0.448954
vt 0.958816 0.448954
vt 0.868393 0.448954
vt 0.868393 0.240364
vt 0.958816 0.240364
vt 0.868393 0.448954
vt 0.958816 0.448954
vt 0.839601 0.240364
vt 0.839601 0.448954
vt 0.839601 0.240364
vt 0.868393 0.240364
vt 0.958799 0.240364
vt 0.995270 0.448954
vt 0.995270 0.240364
vt 0.160879 0.995377
vt 0.160913 0.465091
vt 0.210030 0.465091
vt 0.210030 0.995377
vt 0.163262 0.465091
vt 0.162152 0.995377
vt 0.160913 0.465091
vt 0.210030 0.465091
vt 0.347656 0.995377
vt 0.347656 0.465091
vt 0.995270 0.448954
vt 0.995270 0.240364
vt 0.958799 0.240364
vt 0.958816 0.448954
vt 0.868393 0.240364
vt 0.868393 0.448954
vt 0.958816 0.448954
vt 0.958816 0.240364
vt 0.868393 0.240364
vt 0.868393 0.448954
vt 0.839601 0.240364
vt 0.839601 0.240364
vt 0.839601 0.448954
vt 0.385568 0.995377
vt 0.000500 1.992669
vt 0.000500 1.690529
vt 0.149083 1.690529
vt 0.149083 1.690529
vt 0.000500 1.690529
vt 0.000500 1.992669
vt 0.149083 1.992669
vt 0.149083 1.690528
vt 0.000500 1.690528
vt 0.149083 1.690529
vt 0.000500 1.690529
vt 0.000500 1.992669
vt 0.149083 1.992669
vt 0.149083 1.690528
vt 0.000500 1.690528
vt 0.149083 1.690528
vt 0.000500 1.690528
vt 0.000500 1.992669
vt 0.149083 1.690529
vt 0.000500 1.690529
vt 0.149083 1.992669
vt 0.149083 1.690528
vt 0.000500 1.690528
vt 0.149083 1.992669
vn -0.3659 -0.6500 0.6661
vn -0.3843 0.6505 0.6551
vn -0.5592 0.5987 0.5734
vn -0.2980 -0.6619 0.6878
vn -0.4351 -0.6681 0.6036
vn -0.4494 -0.6727 -0.5878
vn -0.3078 -0.6574 -0.6878
vn 0.5191 0.6016 0.6071
vn 0.3811 0.6416 0.6656
vn 0.3698 -0.6771 0.6363
vn 0.4897 -0.6720 0.5555
vn -0.3505 0.6608 0.6637
vn -0.4969 0.6256 0.6014
vn -0.2980 -0.6619 0.6879
vn -0.5745 0.6002 -0.5566
vn -0.3934 0.6457 -0.6545
vn -0.3814 -0.6438 -0.6634
vn -0.5450 -0.6322 -0.5507
vn 0.3711 0.6507 -0.6624
vn 0.8859 0.3557 -0.2978
vn 0.8692 -0.3969 -0.2950
vn 0.3582 -0.6494 -0.6708
vn 0.7837 -0.4710 0.4049
vn 0.8223 -0.4211 -0.3827
vn 0.7985 0.4340 0.4171
vn -0.4351 -0.6680 0.6036
vn -0.4970 0.6256 0.6014
vn -0.5116 0.6292 -0.5851
vn 0.8044 0.4330 -0.4069
vn 0.8223 -0.4210 -0.3827
vn 0.4897 -0.6721 0.5555
vn 0.5376 -0.6506 -0.5363
vn -0.5908 -0.6110 -0.5270
vn -0.5689 -0.5799 0.5831
vn -0.6021 0.5841 0.5444
vn -0.5908 -0.6109 -0.5270
vn 0.5376 -0.6506 -0.5364
vn 0.5421 0.5967 -0.5916
vn -0.6336 0.5258 -0.5675
vn -0.6021 0.5840 0.5444
vn 0.3810 0.6416 0.6657
vn 0.3910 0.6366 -0.6647
vn 0.3698 -0.6770 0.6363
vn 0.3899 -0.6708 -0.6309
vn -0.3079 -0.6574 -0.6878
vn 0.5080 -0.6481 0.5674
vn 0.5511 -0.6260 -0.5517
vn 0.0006 -0.7043 -0.7099
vn 0.0009 -0.7099 0.7043
vn -0.5170 -0.6410 0.5674
vn -0.5449 -0.6322 -0.5508
vn 0.5454 0.6102 0.5746
vn 0.5081 -0.6480 0.5674
vn 0.0014 0.7072 0.7070
vn -0.5593 0.5987 0.5734
vn -0.5170 -0.6409 0.5674
vn -0.8696 -0.3715 0.3253
vn -0.8826 0.3367 0.3281
vn -0.8889 0.3391 -0.3079
vn -0.8756 -0.3742 -0.3053
vn 0.5488 0.5842 0.5979
vn 0.8043 0.4330 -0.4069
vn 0.5532 0.5814 -0.5966
vn -0.3750 -0.6568 0.6542
vn -0.5688 -0.5799 0.5832
vn -0.4024 -0.6412 -0.6534
vn 0.5297 -0.5976 0.6019
vn 0.5480 -0.5898 -0.5931
vn 0.5296 -0.5977 0.6019
vn -0.3199 -0.6636 0.6762
vn -0.3293 -0.6588 -0.6764
vn -0.3199 -0.6635 0.6763
vn -0.3862 0.6508 0.6536
vn -0.5689 -0.5799 0.5832
vn -0.3211 0.6737 0.6656
vn -0.8696 -0.3716 0.3252
vn -0.3200 -0.6636 0.6762
vn -0.4249 0.6344 -0.6457
vn -0.6337 0.5258 -0.5675
vn -0.3863 0.6508 0.6536
vn -0.0094 0.7106 0.7035
vn -0.0093 0.7106 -0.7035
vn 0.0092 -0.7035 -0.7106
vn -0.4025 -0.6411 -0.6534
vn -0.4248 0.6344 -0.6458
vn -0.4025 -0.6412 -0.6534
vn -0.5907 -0.6110 -0.5270
vn -0.8635 -0.3940 0.3148
vn -0.8799 0.3531 0.3180
vn -0.8859 0.3557 -0.2978
vn -0.8692 -0.3969 -0.2950
vn 0.3772 0.6517 0.6580
vn 0.5454 0.6103 0.5745
vn 0.5608 0.6095 -0.5604
vn 0.3866 0.6470 -0.6572
vn 0.3611 -0.6506 0.6681
vn 0.3822 -0.6433 -0.6634
vn -0.3479 -0.6543 0.6715
vn -0.3582 -0.6494 -0.6708
vn -0.3478 -0.6543 0.6715
vn -0.8635 -0.3940 0.3149
vn 0.3771 0.6517 0.6581
vn -0.3621 0.6554 0.6628
vn 0.3771 0.6517 0.6580
vn 0.3866 0.6471 -0.6571
vn -0.3711 0.6507 -0.6624
vn 0.3772 0.6518 0.6580
vn 0.3866 0.6471 -0.6572
vn 0.8635 -0.3940 0.3148
vn 0.8799 0.3531 0.3180
vn -0.3842 0.6505 0.6551
vn -0.5169 -0.6410 0.5674
vn -0.3659 -0.6499 0.6661
vn -0.3660 -0.6500 0.6660
vn -0.3813 -0.6438 -0.6634
vn 0.3479 -0.6543 0.6715
vn 0.3478 -0.6543 0.6715
vn 0.8635 -0.3940 0.3149
vn 0.0015 0.7059 -0.7083
vn 0.0015 0.7072 0.7070
vn 0.5511 -0.6261 -0.5517
vn 0.0014 0.7059 -0.7083
vn -0.5451 -0.6321 -0.5508
vn -0.5744 0.6002 -0.5566
vn 0.0090 -0.7035 -0.7106
vn 0.0092 -0.7035 0.7106
vn -0.0093 0.7106 0.7035
vn -0.3862 0.6508 0.6537
vn -0.3292 0.6692 -0.6662
vn -0.3211 0.6736 0.6656
vn 0.5488 0.5843 0.5979
vn -0.8890 0.3391 -0.3078
vn 0.5480 -0.5898 -0.5932
vn 0.8044 0.4329 -0.4069
vn 0.8223 -0.4211 -0.3828
vn 0.3621 0.6554 0.6628
vn -0.3934 0.6457 -0.6544
vn -0.3842 0.6506 0.6551
vn -0.2979 -0.6619 0.6879
vn 0.3811 0.6416 0.6657
vn -0.3504 0.6608 0.6637
vn -0.3599 0.6559 -0.6635
vn -0.4495 -0.6727 -0.5878
vn 0.3484 -0.6107 -0.7111
vn -0.0067 -0.1997 0.9798
vn 0.0135 0.9995 -0.0270
vn 0.8022 -0.3048 -0.5134
vn 0.0000 0.0000 0.0000
vn -0.4144 -0.2732 0.8681
vn 1.0000 0.0000 -0.0032
vn 0.6459 -0.6369 0.4209
vn 0.7692 -0.4074 -0.4923
vn 1.0000 0.0001 0.0075
vn -0.9914 -0.0000 0.1309
vn 0.3592 -0.6642 0.6556
vn 0.9765 -0.2151 0.0166
vn -0.6841 0.7293 0.0096
vn 0.9999 0.0000 0.0152
vn 0.9063 0.2570 0.3356
vn 0.4884 0.8660 0.1074
vn 0.4908 -0.8712 -0.0106
vn -0.9998 0.0001 -0.0177
vn -0.9753 0.0001 0.2211
vn 0.9302 0.1041 -0.3520
vn -0.6317 0.7751 -0.0142
vn -0.9998 0.0017 -0.0177
vn -0.0022 0.0001 -1.0000
vn -0.0279 0.0008 -0.9996
vn 0.0229 -0.0007 0.9997
vn -0.0009 -0.8161 -0.5779
vn 0.0001 0.9975 0.0703
vn -0.0054 0.0000 1.0000
vn 0.0050 0.0050 1.0000
vn 0.0028 -0.8153 0.5790
vn -0.0055 -0.0000 1.0000
vn 0.0000 1.0000 0.0000
vn -0.0003 0.9794 -0.2019
vn 0.0038 0.7293 0.6842
vn 0.0035 -0.8712 0.4909
vn -0.0007 -0.0000 1.0000
vn 0.0032 -0.0106 0.9999
vn -0.0090 0.0126 -0.9999
vn 0.0048 -0.0049 1.0000
vn 0.0341 0.0060 -0.9994
usemtl mat_stormwind_shop_sign_tavern
s 1
f 1/1/1 2/2/2 3/3/3
f 4/4/4 5/5/5 6/6/6
f 6/6/6 7/7/7 4/4/4
f 8/8/8 9/9/9 10/10/10
f 10/10/10 11/11/11 8/8/8
f 12/12/12 13/13/13 14/14/5
f 14/14/5 15/15/14 12/12/12
f 16/16/15 17/17/16 18/18/17
f 18/18/17 19/19/18 16/16/15
f 20/20/19 21/21/20 22/22/21
f 22/22/21 23/23/22 20/20/19
f 24/24/16 20/20/19 23/23/22
f 23/23/22 25/25/17 24/24/16
f 26/26/23 27/27/24 28/28/6
f 28/28/6 29/29/5 26/26/23
f 30/30/25 31/31/23 32/32/26
f 32/32/26 33/33/13 30/30/25
f 34/34/25 35/35/27 36/36/28
f 36/36/28 37/37/29 34/34/25
f 38/38/30 37/37/29 36/36/28
f 36/36/28 39/39/6 38/38/30
f 40/40/31 41/41/32 42/42/33
f 42/42/33 43/43/34 40/40/31
f 44/44/35 45/45/8 46/46/11
f 46/46/11 47/47/34 44/44/35
f 48/48/36 49/49/37 50/50/38
f 50/50/38 51/51/39 48/48/36
f 51/51/39 50/50/38 52/52/8
f 52/52/8 53/53/40 51/51/39
f 54/54/41 55/55/8 56/56/38
f 56/56/38 57/57/42 54/54/41
f 58/58/11 59/59/43 60/60/44
f 60/60/44 61/61/32 58/58/11
f 62/62/10 63/63/4 64/64/45
f 64/64/45 65/65/44 62/62/10
f 66/66/46 67/67/47 68/68/48
f 68/68/48 69/69/49 66/66/46
f 70/70/50 69/69/49 68/68/48
f 68/68/48 71/71/51 70/70/50
f 72/72/52 73/73/53 74/74/49
f 74/74/49 75/75/54 72/72/52
f 76/76/55 75/75/54 74/74/49
f 74/74/49 77/77/56 76/76/55
f 78/78/57 79/79/58 80/80/59
f 80/80/59 81/81/60 78/78/57
f 82/82/61 83/83/25 84/84/62
f 84/84/62 85/85/63 82/82/61
f 86/86/64 87/87/65 88/88/36
f 88/88/36 89/89/66 86/86/64
f 90/90/23 91/91/67 92/92/68
f 92/92/68 93/93/24 90/90/23
f 94/94/69 95/95/70 96/96/71
f 96/96/71 97/97/68 94/94/69
f 98/98/72 99/99/57 100/100/60
f 100/100/60 101/101/71 98/98/72
f 102/102/73 103/103/40 104/104/74
f 104/104/74 105/105/64 102/102/73
f 106/106/25 107/107/61 108/108/67
f 108/108/67 109/109/23 106/106/25
f 110/110/75 111/111/58 112/112/76
f 112/112/76 113/113/77 110/110/75
f 114/114/78 115/115/79 116/116/35
f 117/117/80 118/118/81 119/119/82
f 119/119/82 120/120/83 121/121/84
f 121/121/84 114/114/78 119/119/82
f 119/119/82 114/114/78 117/117/80
f 116/116/35 117/117/80 114/114/78
f 122/122/85 123/123/86 124/124/87
f 124/124/87 125/125/79 122/122/85
f 126/126/88 127/127/89 128/128/90
f 128/128/90 129/129/91 126/126/88
f 130/130/92 131/131/93 132/132/94
f 132/132/94 133/133/95 130/130/92
f 134/134/53 135/135/96 136/136/97
f 136/136/97 137/137/47 134/134/53
f 138/138/96 139/139/98 140/140/99
f 140/140/99 141/141/97 138/138/96
f 142/142/100 143/143/101 144/144/91
f 144/144/91 145/145/99 142/142/100
f 146/146/93 147/147/102 148/148/96
f 148/148/96 149/149/53 146/146/93
f 150/150/103 151/151/104 152/152/105
f 152/152/105 153/153/106 150/150/103
f 153/153/106 154/154/90 155/155/89
f 155/155/89 150/150/103 153/153/106
f 150/150/103 155/155/89 156/156/88
f 156/156/88 157/157/98 150/150/103
f 158/158/107 150/150/103 157/157/98
f 157/157/98 159/159/96 158/158/107
f 160/160/94 161/161/47 162/162/97
f 162/162/97 163/163/105 160/160/94
f 164/164/108 165/165/97 166/166/99
f 166/166/99 167/167/106 164/164/108
f 167/167/106 166/166/99 168/168/91
f 168/168/91 169/169/90 167/167/106
f 170/170/109 171/171/21 172/172/20
f 172/172/20 173/173/110 170/170/109
f 174/174/111 175/175/16 176/176/15
f 176/176/15 177/177/55 174/174/111
f 178/178/112 179/179/51 180/180/17
f 180/180/17 181/181/113 178/178/112
f 182/182/114 183/183/115 184/184/22
f 184/184/22 185/185/116 182/182/114
f 186/186/117 187/187/22 188/188/21
f 188/188/21 189/189/118 186/186/117
f 190/190/119 191/191/94 192/192/93
f 193/193/55 194/194/15 190/190/119
f 190/190/119 195/195/120 193/193/55
f 192/192/93 195/195/120 190/190/119
f 196/196/121 197/197/94 198/198/122
f 198/198/122 199/199/48 196/196/121
f 200/200/123 199/199/48 198/198/122
f 198/198/122 201/201/124 200/200/123
f 202/202/66 203/203/125 204/204/126
f 204/204/126 205/205/64 202/202/66
f 205/205/64 204/204/126 206/206/127
f 206/206/127 207/207/128 205/205/64
f 208/208/63 209/209/129 210/210/130
f 210/210/130 211/211/131 208/208/63
f 211/211/131 210/210/130 212/212/77
f 212/212/77 213/213/67 211/211/131
f 214/214/58 210/210/130 209/209/129
f 209/209/129 215/215/132 214/214/58
f 216/216/60 215/215/132 209/209/129
f 209/209/129 217/217/71 216/216/60
f 217/217/71 209/209/129 208/208/63
f 208/208/63 218/218/133 217/217/71
f 218/218/133 208/208/63 219/219/134
f 219/219/134 220/220/135 218/218/133
f 221/221/110 222/222/20 223/223/19
f 223/223/19 224/224/136 221/221/110
f 224/224/136 223/223/19 225/225/137
f 225/225/137 226/226/2 224/224/136
f 227/227/109 221/221/110 224/224/136
f 224/224/136 228/228/116 227/227/109
f 228/228/116 224/224/136 229/229/138
f 229/229/138 230/230/113 228/228/116
f 231/231/38 232/232/37 233/233/44
f 233/233/44 234/234/42 231/231/38
f 234/234/42 233/233/44 235/235/45
f 236/236/139 237/237/10 238/238/140
f 238/238/140 239/239/141 236/236/139
f 239/239/141 238/238/140 234/234/42
f 234/234/42 240/240/142 239/239/141
f 235/235/45 240/240/142 234/234/42
f 240/240/142 235/235/45 241/241/143
f 242/242/27 239/239/141 240/240/142
f 240/240/142 243/243/28 242/242/27
f 241/241/143 243/243/28 240/240/142
f 3/3/3 244/244/112 1/1/1
usemtl mat_stormwind_shop_sign_chain
f 245/245/144 246/246/145 247/247/146
f 248/248/147 249/249/148 250/250/149
f 250/250/149 249/249/148 248/248/147
f 250/250/150 251/251/151 248/248/152
f 252/252/153 251/251/154 250/250/150
f 250/250/155 253/253/156 252/252/157
f 248/248/152 251/251/151 250/250/150
f 250/250/150 251/251/154 252/252/153
f 252/252/157 253/253/156 250/250/155
f 254/254/158 255/255/148 256/256/159
f 256/256/159 255/255/148 254/254/158
f 256/256/150 257/257/160 254/254/161
f 258/258/162 257/257/163 256/256/150
f 256/256/164 259/259/165 258/258/166
f 254/254/161 257/257/160 256/256/150
f 256/256/150 257/257/163 258/258/162
f 258/258/166 259/259/165 256/256/164
f 260/260/167 261/261/168 262/262/169
f 262/262/169 261/261/168 260/260/167
f 263/263/170 264/264/148 262/262/171
f 262/262/172 265/265/173 263/263/174
f 262/262/175 265/265/176 260/260/177
f 263/263/174 265/265/173 262/262/175
f 262/262/171 264/264/148 263/263/170
f 260/260/177 265/265/176 262/262/172
f 266/266/178 267/267/148 245/245/179
f 245/245/180 268/268/181 266/266/182
f 245/245/179 267/267/148 266/266/178
f 266/266/182 268/268/181 245/245/180
f 245/245/180 268/268/183 247/247/184
f 247/247/146 246/246/145 245/245/144
f 247/247/184 268/268/183 245/245/180
